#!OML:ASF F:\VICON\USERDATA\INSTALL\rory3\rory3.ASF
:FULLY-SPECIFIED
:DEGREES
421
root -0.756191 16.0106 19.133 1.36626 2.16866 -1.21683
lowerback 11.7662 1.40418 -3.31839
upperback -5.68821 1.49899 1.44593
thorax -13.0384 1.07399 3.12699
lowerneck -11.5569 -5.82404 -3.56708
upperneck 20.9993 -8.03258 2.88155
head 8.71953 -3.77888 0.674668
rclavicle -1.043e-014 -1.10325e-014
rhumerus -33.2717 1.64023 -84.6962
rradius 32.597
rwrist 3.27641
rhand -11.8517 20.8978
rfingers 7.12502
rthumb 14.1999 -8.59683
lclavicle -1.043e-014 -1.10325e-014
lhumerus -43.0758 1.94933 89.5699
lradius 22.1903
lwrist 0.400488
lhand -3.96065 20.4783
lfingers 7.12502
lthumb 21.7917 49.2715
rfemur 23.0382 13.2736 30.1612
rtibia 5.40694e-014
rfoot -14.0805 -10.3048
rtoes 18.6813
lfemur -33.7071 -22.8314 -11.6578
ltibia 27.2661
lfoot -10.8007 15.7407
ltoes 5.83104
422
root -0.720147 15.99 19.2893 1.19369 2.008 -1.47885
lowerback 11.876 1.4268 -3.02196
upperback -5.72255 1.58633 1.51485
thorax -13.1444 1.0956 3.01396
lowerneck -11.6655 -5.88248 -3.47423
upperneck 21.2477 -8.08243 2.62155
head 8.81039 -3.81764 0.560569
rclavicle -1.86174e-014 -6.65929e-015
rhumerus -33.9504 1.4049 -84.6607
rradius 32.7194
rwrist 3.57952
rhand -11.6096 20.7609
rfingers 7.12502
rthumb 14.4332 -8.71725
lclavicle -1.86174e-014 -6.65929e-015
lhumerus -43.1418 2.18152 89.4154
lradius 22.0241
lwrist 0.04502
lhand -3.76478 20.253
lfingers 7.12502
lthumb 21.9798 49.0242
rfemur 23.7442 13.0554 30.3426
rtibia -6.36111e-015
rfoot -13.5423 -9.83252
rtoes 18.9074
lfemur -33.1963 -22.0564 -12.0191
ltibia 27.7051
lfoot -9.35463 14.4537
ltoes 5.70912
423
root -0.684849 15.9715 19.4464 1.12957 1.94881 -1.4859
lowerback 11.819 1.42247 -3.05182
upperback -5.71949 1.57857 1.52997
thorax -13.1068 1.09481 3.05006
lowerneck -12.1053 -5.94335 -3.41491
upperneck 21.6875 -8.14096 2.4245
head 9.03319 -3.84966 0.458029
rclavicle 9.16273e-015 4.96962e-015
rhumerus -34.3323 1.23035 -84.6572
rradius 32.5729
rwrist 3.85348
rhand -11.4667 20.6923
rfingers 7.12502
rthumb 14.5709 -8.77596
lclavicle 9.16273e-015 4.96962e-015
lhumerus -43.0512 2.34393 89.3135
lradius 21.8544
lwrist -0.175045
lhand -3.63659 20.5552
lfingers 7.12502
lthumb 22.1029 49.3119
rfemur 24.4079 12.7535 30.2312
rtibia 9.54166e-015
rfoot -13.0075 -9.41471
rtoes 18.5975
lfemur -32.9504 -21.5917 -12.4573
ltibia 28.1587
lfoot -8.25732 13.3123
ltoes 10.0314
424
root -0.647353 15.9619 19.6069 1.09174 1.85704 -1.2879
lowerback 11.7596 1.41132 -3.29885
upperback -5.76637 1.51856 1.49994
thorax -13.1283 1.08755 3.17139
lowerneck -11.7944 -5.85213 -3.51485
upperneck 21.5178 -8.03891 2.6138
head 8.92688 -3.79671 0.562009
rclavicle 1.97667e-014 -1.0138e-014
rhumerus -34.5946 1.11043 -84.6801
rradius 32.0965
rwrist 4.23829
rhand -11.36 20.4893
rfingers 7.12502
rthumb 14.6737 -8.97149
lclavicle 1.97667e-014 -1.0138e-014
lhumerus -43.0629 2.38394 89.3078
lradius 21.6918
lwrist -0.0828288
lhand -3.7876 20.6961
lfingers 7.12502
lthumb 21.9579 49.4698
rfemur 25.0381 12.4967 29.8706
rtibia -3.49861e-014
rfoot -12.5139 -9.19228
rtoes 15.8521
lfemur -32.78 -21.6464 -12.8784
ltibia 28.6204
lfoot -8.66827 12.3668
ltoes 23.1454
425
root -0.606194 15.9544 19.7726 1.01511 1.77943 -1.01041
lowerback 11.636 1.44652 -3.52287
upperback -5.74015 1.52126 1.41632
thorax -13.0278 1.10121 3.2062
lowerneck -11.4504 -5.80814 -3.54369
upperneck 21.1827 -8.00159 2.76254
head 8.75513 -3.77502 0.635823
rclavicle -3.10601e-016 7.45443e-015
rhumerus -34.9494 0.936369 -84.6685
rradius 31.7329
rwrist 4.47895
rhand -11.4525 20.3262
rfingers 7.12502
rthumb 14.5846 -9.14106
lclavicle -3.10601e-016 7.45443e-015
lhumerus -43.0003 2.15323 89.4666
lradius 21.5565
lwrist 0.187714
lhand -4.04697 20.425
lfingers 7.12502
lthumb 21.7089 49.2278
rfemur 25.7098 12.2222 29.4301
rtibia 1.27222e-014
rfoot -11.9799 -9.04231
rtoes 12.8723
lfemur -32.4931 -21.8116 -13.4169
ltibia 29.157
lfoot -9.02514 11.8986
ltoes 31.3095
426
root -0.565718 15.9414 19.9391 0.917013 1.8094 -0.517511
lowerback 11.4974 1.47019 -3.94311
upperback -5.67327 1.46874 1.26621
thorax -12.8715 1.09983 3.29158
lowerneck -11.5715 -5.83685 -3.46736
upperneck 21.241 -8.03486 2.66801
head 8.7909 -3.79194 0.583548
rclavicle -2.1593e-014 -1.16289e-014
rhumerus -35.3007 0.795306 -84.6748
rradius 31.3628
rwrist 4.51915
rhand -11.8142 20.5109
rfingers 7.12502
rthumb 14.236 -8.98122
lclavicle -2.1593e-014 -1.16289e-014
lhumerus -42.8105 2.10499 89.4716
lradius 21.2884
lwrist 0.124546
lhand -4.06442 20.2169
lfingers 7.12502
lthumb 21.6921 49.0216
rfemur 24.2883 11.8382 28.7714
rtibia 3.88453
rfoot -13.0026 -8.64723
rtoes 11.044
lfemur -32.0309 -21.4752 -14.4635
ltibia 29.7089
lfoot -8.05221 11.9192
ltoes 30.0919
427
root -0.53218 15.9113 20.1017 0.821835 1.86127 -0.138328
lowerback 11.4497 1.44628 -4.37802
upperback -5.71047 1.352 1.16342
thorax -12.8875 1.07726 3.4512
lowerneck -11.4369 -5.81236 -3.33268
upperneck 21.3096 -8.00546 2.53459
head 8.77663 -3.78283 0.524089
rclavicle 4.48508e-015 1.22253e-014
rhumerus -35.8071 0.790127 -84.7796
rradius 30.9255
rwrist 4.48045
rhand -11.9024 20.8729
rfingers 7.12502
rthumb 14.151 -8.62516
lclavicle 4.48508e-015 1.22253e-014
lhumerus -42.7795 2.21805 89.2839
lradius 20.9732
lwrist -0.270219
lhand -3.90034 20.0669
lfingers 7.12502
lthumb 21.8497 48.8534
rfemur 22.2027 11.4249 28.2523
rtibia 8.91396
rfoot -14.3374 -8.12254
rtoes 10.0437
lfemur -31.6492 -20.6387 -15.4752
ltibia 30.3613
lfoot -7.13891 11.5318
ltoes 29.3376
428
root -0.499176 15.8978 20.2592 0.741481 1.97559 0.144135
lowerback 11.617 1.43815 -4.69496
upperback -5.80234 1.26603 1.06476
thorax -13.0976 1.06511 3.53947
lowerneck -11.4081 -5.82042 -3.28098
upperneck 21.4052 -8.03313 2.53465
head 8.8026 -3.7913 0.512214
rclavicle -2.45499e-014 1.63997e-014
rhumerus -36.5138 0.616748 -84.8104
rradius 30.6946
rwrist 4.60969
rhand -11.5874 20.6022
rfingers 7.12502
rthumb 14.4546 -8.87439
lclavicle -2.45499e-014 1.63997e-014
lhumerus -42.758 2.19087 89.1636
lradius 20.6976
lwrist -0.472812
lhand -4.04156 19.782
lfingers 7.12502
lthumb 21.7141 48.5841
rfemur 20.7857 10.9593 27.8004
rtibia 12.5602
rfoot -14.8928 -7.51813
rtoes 9.38094
lfemur -31.3246 -19.519 -16.4058
ltibia 31.0416
lfoot -6.42811 10.8204
ltoes 29.3482
429
root -0.460349 15.8864 20.4104 0.809057 2.17347 0.482952
lowerback 11.6684 1.3922 -4.91749
upperback -5.87864 1.14526 0.929191
thorax -13.2097 1.02416 3.54228
lowerneck -11.5989 -5.856 -3.41102
upperneck 21.5711 -8.08184 2.63662
head 8.90683 -3.80923 0.553306
rclavicle 5.42931e-015 8.10048e-015
rhumerus -37.0642 0.00620359 -84.6644
rradius 30.261
rwrist 5.2275
rhand -11.4421 20.593
rfingers 7.12502
rthumb 14.5945 -8.87355
lclavicle 5.42931e-015 8.10048e-015
lhumerus -42.5918 2.27093 89.0127
lradius 20.416
lwrist -0.662573
lhand -4.13734 19.4024
lfingers 7.12502
lthumb 21.6221 48.2151
rfemur 19.4095 10.1028 27.0636
rtibia 15.7436
rfoot -15.0376 -6.61324
rtoes 8.15423
lfemur -31.2864 -18.5032 -17.3101
ltibia 31.8174
lfoot -5.72287 10.1341
ltoes 28.9545
430
root -0.416153 15.8744 20.5647 0.873466 2.30492 0.696924
lowerback 11.5624 1.33962 -4.95492
upperback -5.93286 1.06029 0.829181
thorax -13.197 0.982492 3.47253
lowerneck -11.5035 -5.86356 -3.49973
upperneck 21.5549 -8.09376 2.71143
head 8.89143 -3.81588 0.594491
rclavicle -2.45375e-015 -1.39149e-015
rhumerus -37.5891 -0.717208 -84.4283
rradius 29.7014
rwrist 6.04834
rhand -11.5398 20.6927
rfingers 7.12502
rthumb 14.5005 -8.78056
lclavicle -2.45375e-015 -1.39149e-015
lhumerus -42.4275 2.14794 88.9901
lradius 20.1418
lwrist -0.644695
lhand -4.08217 19.7385
lfingers 7.12502
lthumb 21.6751 48.5452
rfemur 18.1893 9.1255 26.3229
rtibia 18.586
rfoot -14.7611 -5.63598
rtoes 7.49974
lfemur -31.1894 -17.539 -18.0803
ltibia 32.5642
lfoot -5.00838 9.5224
ltoes 28.5465
